<svg xmlns="http://www.w3.org/2000/svg" width="900" height="560" viewBox="0 0 900 560">
<style>text { font-family: Arial, sans-serif; fill: #111; } .small { font-size: 13px; } .axis { stroke: #333; stroke-width: 1.5; } .grid { stroke: #ccc; stroke-dasharray: 4 4; } .title { font-size: 20px; font-weight: 700; } .label { font-size: 15px; }</style>
<rect x="0" y="0" width="900" height="560" fill="white"/>
<line class="grid" x1="90.00" y1="40" x2="90.00" y2="470"/>
<line class="grid" x1="406.78" y1="40" x2="406.78" y2="470"/>
<line class="grid" x1="543.22" y1="40" x2="543.22" y2="470"/>
<line class="grid" x1="860.00" y1="40" x2="860.00" y2="470"/>
<line class="grid" x1="90" y1="451.67" x2="860" y2="451.67"/>
<line class="grid" x1="90" y1="319.44" x2="860" y2="319.44"/>
<line class="grid" x1="90" y1="262.49" x2="860" y2="262.49"/>
<line class="grid" x1="90" y1="130.26" x2="860" y2="130.26"/>
<line class="grid" x1="90" y1="73.31" x2="860" y2="73.31"/>
<line class="axis" x1="90" y1="470" x2="860" y2="470"/>
<line class="axis" x1="90" y1="40" x2="90" y2="470"/>
<text class="small" x="90.00" y="494" text-anchor="middle">1,000</text>
<text class="small" x="406.78" y="494" text-anchor="middle">5,000</text>
<text class="small" x="543.22" y="494" text-anchor="middle">10,000</text>
<text class="small" x="860.00" y="494" text-anchor="middle">50,000</text>
<text class="small" x="80" y="456.67" text-anchor="end">100</text>
<text class="small" x="80" y="324.44" text-anchor="end">500</text>
<text class="small" x="80" y="267.49" text-anchor="end">1,000</text>
<text class="small" x="80" y="135.26" text-anchor="end">5,000</text>
<text class="small" x="80" y="78.31" text-anchor="end">10,000</text>
<polyline fill="none" stroke="#1f77b4" stroke-width="3" points="90.00,465.99 406.78,309.54 543.22,254.81 860.00,104.78"/>
<circle cx="90.00" cy="465.99" r="5" fill="#1f77b4"/>
<circle cx="406.78" cy="309.54" r="5" fill="#1f77b4"/>
<circle cx="543.22" cy="254.81" r="5" fill="#1f77b4"/>
<circle cx="860.00" cy="104.78" r="5" fill="#1f77b4"/>
<polyline fill="none" stroke="#d62728" stroke-width="3" points="90.00,413.05 406.78,262.82 543.22,202.72 860.00,56.69"/>
<rect x="85.00" y="408.05" width="10" height="10" fill="#d62728"/>
<rect x="401.78" y="257.82" width="10" height="10" fill="#d62728"/>
<rect x="538.22" y="197.72" width="10" height="10" fill="#d62728"/>
<rect x="855.00" y="51.69" width="10" height="10" fill="#d62728"/>
<polyline fill="none" stroke="#2ca02c" stroke-width="3" points="90.00,410.52 406.78,243.63 543.22,197.23 860.00,49.39"/>
<polygon points="90.00,404.52 84.00,415.52 96.00,415.52" fill="#2ca02c"/>
<polygon points="406.78,237.63 400.78,248.63 412.78,248.63" fill="#2ca02c"/>
<polygon points="543.22,191.23 537.22,202.23 549.22,202.23" fill="#2ca02c"/>
<polygon points="860.00,43.39 854.00,54.39 866.00,54.39" fill="#2ca02c"/>
<text class="title" x="450.00" y="28" text-anchor="middle">Runtime vs n (Log-Log Scale)</text>
<text class="label" x="450.00" y="532" text-anchor="middle">n (array size)</text>
<text class="label" transform="translate(24 280.00) rotate(-90)" text-anchor="middle">Runtime (microseconds)</text>
<rect x="650" y="56" width="190" height="96" fill="white" stroke="#999"/>
<line x1="662" y1="80" x2="694" y2="80" stroke="#1f77b4" stroke-width="3"/>
<circle cx="678" cy="80" r="4" fill="#1f77b4"/>
<text class="small" x="702" y="84">Quick Sort</text>
<line x1="662" y1="106" x2="694" y2="106" stroke="#d62728" stroke-width="3"/>
<rect x="674" y="102" width="8" height="8" fill="#d62728"/>
<text class="small" x="702" y="110">Merge Sort</text>
<line x1="662" y1="132" x2="694" y2="132" stroke="#2ca02c" stroke-width="3"/>
<polygon points="678,127 673,136 683,136" fill="#2ca02c"/>
<text class="small" x="702" y="136">Heap Sort</text>
</svg>